<svg width="25" height="24" viewBox="0 0 25 24" fill="none" xmlns="http://www.w3.org/2000/svg">
<path d="M22.25 0.562526H2.75C2.30756 0.558023 1.8814 0.729221 1.56504 1.03856C1.24867 1.34789 1.06794 1.77009 1.0625 2.21253V21.7913C1.06892 22.2331 1.25009 22.6543 1.56634 22.9628C1.8826 23.2714 2.3082 23.442 2.75 23.4375H22.25C22.6925 23.441 23.1183 23.2693 23.4345 22.9597C23.7507 22.6502 23.9316 22.2281 23.9375 21.7857V2.2069C23.9296 1.76577 23.7479 1.34558 23.4319 1.03766C23.1159 0.729747 22.6912 0.558997 22.25 0.562526Z" fill="#0076B2"/>
<path d="M4.44871 9.1369H7.84434V20.0625H4.44871V9.1369ZM6.14746 3.6994C6.53692 3.6994 6.91764 3.81491 7.24144 4.03133C7.56523 4.24774 7.81757 4.55533 7.96653 4.91518C8.11548 5.27503 8.15436 5.67097 8.07824 6.05293C8.00213 6.43488 7.81444 6.78567 7.53891 7.06093C7.26339 7.33619 6.91242 7.52355 6.5304 7.5993C6.14837 7.67505 5.75246 7.6358 5.39275 7.4865C5.03304 7.3372 4.7257 7.08457 4.50959 6.76057C4.29349 6.43656 4.17834 6.05574 4.17871 5.66628C4.17921 5.14446 4.38685 4.64418 4.75601 4.27537C5.12517 3.90657 5.62564 3.6994 6.14746 3.6994ZM9.97434 9.1369H13.2293V10.6369H13.2743C13.7281 9.77815 14.8343 8.87253 16.4862 8.87253C19.925 8.86503 20.5625 11.1282 20.5625 14.0625V20.0625H17.1668V14.7469C17.1668 13.4813 17.1443 11.8519 15.4025 11.8519C13.6606 11.8519 13.3643 13.2319 13.3643 14.6644V20.0625H9.97434V9.1369Z" fill="white"/>
</svg>
