<svg width="14" height="14" viewBox="0 0 14 14" fill="none" xmlns="http://www.w3.org/2000/svg">
<path d="M12.1645 0.0810547C12.5472 0.0810547 12.9142 0.233083 13.1848 0.503694C13.4554 0.774306 13.6074 1.14133 13.6074 1.52404V11.6249C13.6074 12.0076 13.4554 12.3746 13.1848 12.6453C12.9142 12.9159 12.5472 13.0679 12.1645 13.0679H2.06359C1.68089 13.0679 1.31386 12.9159 1.04325 12.6453C0.772633 12.3746 0.620605 12.0076 0.620605 11.6249V1.52404C0.620605 1.14133 0.772633 0.774306 1.04325 0.503694C1.31386 0.233083 1.68089 0.0810547 2.06359 0.0810547H12.1645ZM11.8037 11.2642V7.44026C11.8037 6.81646 11.5559 6.2182 11.1148 5.77711C10.6737 5.33601 10.0755 5.0882 9.45166 5.0882C8.83839 5.0882 8.12411 5.46338 7.7778 6.02614V5.22529H5.76484V11.2642H7.7778V7.70722C7.7778 7.15167 8.22512 6.69713 8.78067 6.69713C9.04856 6.69713 9.30548 6.80355 9.49491 6.99298C9.68434 7.18241 9.79076 7.43932 9.79076 7.70722V11.2642H11.8037ZM3.41999 4.09255C3.74146 4.09255 4.04977 3.96484 4.27708 3.73753C4.50439 3.51021 4.6321 3.20191 4.6321 2.88044C4.6321 2.20945 4.09098 1.66112 3.41999 1.66112C3.09661 1.66112 2.78647 1.78958 2.5578 2.01825C2.32913 2.24692 2.20067 2.55706 2.20067 2.88044C2.20067 3.55143 2.749 4.09255 3.41999 4.09255ZM4.42286 11.2642V5.22529H2.42433V11.2642H4.42286Z" fill="#667085"/>
</svg>
