<svg width="16" height="9" viewBox="0 0 16 9" fill="none" xmlns="http://www.w3.org/2000/svg">
<path d="M5.31589 0.245605C6.46399 0.245605 7.56508 0.70169 8.37691 1.51352C9.18875 2.32536 9.64483 3.42644 9.64483 4.57455C9.64483 5.72266 9.18875 6.82375 8.37691 7.63558C7.56508 8.44742 6.46399 8.9035 5.31589 8.9035C4.16778 8.9035 3.06669 8.44742 2.25486 7.63558C1.44302 6.82375 0.986938 5.72266 0.986938 4.57455C0.986938 3.42644 1.44302 2.32536 2.25486 1.51352C3.06669 0.70169 4.16778 0.245605 5.31589 0.245605ZM11.8093 0.967097C12.8915 0.967097 13.613 2.58252 13.613 4.57455C13.613 6.56659 12.8915 8.18201 11.8093 8.18201C10.7271 8.18201 10.0056 6.56659 10.0056 4.57455C10.0056 2.58252 10.7271 0.967097 11.8093 0.967097ZM14.6953 1.32784C14.9694 1.32784 15.209 1.92452 15.3302 2.94831L15.3641 3.26793L15.3778 3.43748L15.3994 3.7939L15.4067 3.98077L15.4153 4.37109L15.4168 4.57455L15.4153 4.77801L15.4067 5.16834L15.3994 5.35593L15.3778 5.71162L15.3634 5.88117L15.3309 6.20079C15.209 7.22531 14.9702 7.82126 14.6953 7.82126C14.4211 7.82126 14.1816 7.22459 14.0604 6.20079L14.0264 5.88117L14.0127 5.71162L13.9911 5.35521L13.9839 5.16834L13.9752 4.77801V4.37109L13.9839 3.98077L13.9911 3.79318L14.0127 3.43748L14.0272 3.26793L14.0596 2.94831C14.1816 1.92379 14.4204 1.32784 14.6953 1.32784Z" fill="#667085"/>
</svg>
