<svg width="15" height="15" viewBox="0 0 15 15" fill="none" xmlns="http://www.w3.org/2000/svg">
<path fill-rule="evenodd" clip-rule="evenodd" d="M7.2895 0.359619C3.3047 0.359619 0.074585 3.58974 0.074585 7.57453C0.074585 11.5593 3.3047 14.7894 7.2895 14.7894C11.2743 14.7894 14.5044 11.5593 14.5044 7.57453C14.5044 3.58974 11.2743 0.359619 7.2895 0.359619ZM3.87612 6.449C6.21375 5.79678 8.56942 6.12506 10.6105 7.00744C10.7859 7.08152 10.9834 7.0833 11.16 7.0124C11.3367 6.9415 11.4782 6.80366 11.5537 6.62891C11.6291 6.45416 11.6325 6.25666 11.563 6.07944C11.4935 5.90223 11.3568 5.75965 11.1827 5.68278C8.89554 4.69434 6.20005 4.30257 3.48796 5.05941C3.3065 5.11333 3.1535 5.2364 3.06196 5.40209C2.97041 5.56778 2.94764 5.76281 2.99857 5.94513C3.0495 6.12745 3.17004 6.28245 3.3342 6.3767C3.49836 6.47096 3.69299 6.49693 3.87612 6.449ZM4.21955 8.5168C6.23107 7.9562 8.54561 8.30684 9.83275 9.09688C9.91353 9.14643 10.0033 9.17959 10.0969 9.19446C10.1904 9.20933 10.286 9.20562 10.3782 9.18355C10.4703 9.16147 10.5573 9.12146 10.6339 9.0658C10.7106 9.01014 10.7756 8.93992 10.8252 8.85915C10.8747 8.77837 10.9079 8.68863 10.9227 8.59505C10.9376 8.50146 10.9339 8.40586 10.9118 8.31371C10.8898 8.22155 10.8497 8.13465 10.7941 8.05796C10.7384 7.98127 10.6682 7.91629 10.5874 7.86674C8.91935 6.84222 6.18345 6.47137 3.83211 7.12721C3.65181 7.18202 3.50011 7.3052 3.40945 7.47041C3.31879 7.63562 3.29637 7.82975 3.34698 8.01128C3.39759 8.1928 3.51722 8.34732 3.68028 8.44179C3.84335 8.53626 4.0369 8.56318 4.21955 8.5168ZM4.53051 10.5038C5.3458 10.3162 6.25271 10.314 7.04996 10.4381C7.87246 10.5651 8.46553 10.809 8.72238 11.0197C8.87068 11.1408 9.06102 11.198 9.25153 11.1788C9.44204 11.1596 9.61711 11.0655 9.73824 10.9172C9.85936 10.7689 9.91662 10.5786 9.8974 10.3881C9.87819 10.1975 9.78408 10.0225 9.63579 9.90134C9.08529 9.45185 8.1928 9.1546 7.27146 9.01174C6.32486 8.86528 5.23036 8.86239 4.20729 9.09832C4.11226 9.11681 4.02193 9.15423 3.94167 9.20836C3.86141 9.26248 3.79287 9.33221 3.74011 9.41338C3.68736 9.49455 3.65149 9.5855 3.63462 9.68083C3.61775 9.77615 3.62024 9.8739 3.64194 9.96824C3.66364 10.0626 3.7041 10.1516 3.76091 10.23C3.81773 10.3084 3.88973 10.3745 3.97265 10.4245C4.05556 10.4744 4.14768 10.5072 4.24352 10.5208C4.33936 10.5345 4.43696 10.5287 4.53051 10.5038Z" fill="#667085"/>
</svg>
