<svg width="15" height="15" viewBox="0 0 15 15" fill="none" xmlns="http://www.w3.org/2000/svg">
<path d="M10.523 9.01751C10.5807 8.54133 10.624 8.06515 10.624 7.57453C10.624 7.08392 10.5807 6.60773 10.523 6.13155H12.9616C13.077 6.5933 13.1492 7.0767 13.1492 7.57453C13.1492 8.07236 13.077 8.55576 12.9616 9.01751M9.24593 13.029C9.67882 12.2281 10.0107 11.3624 10.2416 10.4605H12.37C11.671 11.6641 10.562 12.5759 9.24593 13.029ZM9.06556 9.01751H5.68898C5.61683 8.54133 5.57354 8.06515 5.57354 7.57453C5.57354 7.08392 5.61683 6.60052 5.68898 6.13155H9.06556C9.13049 6.60052 9.18099 7.08392 9.18099 7.57453C9.18099 8.06515 9.13049 8.54133 9.06556 9.01751ZM7.37727 13.3176C6.77843 12.4518 6.29503 11.4922 5.99922 10.4605H8.75531C8.4595 11.4922 7.9761 12.4518 7.37727 13.3176ZM4.4913 4.68857H2.38455C3.0762 3.48154 4.18442 2.56828 5.50139 2.12006C5.06849 2.92091 4.74382 3.7867 4.4913 4.68857ZM2.38455 10.4605H4.4913C4.74382 11.3624 5.06849 12.2281 5.50139 13.029C4.18702 12.5761 3.08027 11.6641 2.38455 10.4605ZM1.79292 9.01751C1.67749 8.55576 1.60534 8.07236 1.60534 7.57453C1.60534 7.0767 1.67749 6.5933 1.79292 6.13155H4.23156C4.17384 6.60773 4.13056 7.08392 4.13056 7.57453C4.13056 8.06515 4.17384 8.54133 4.23156 9.01751M7.37727 1.82425C7.9761 2.69004 8.4595 3.65683 8.75531 4.68857H5.99922C6.29503 3.65683 6.77843 2.69004 7.37727 1.82425ZM12.37 4.68857H10.2416C10.0154 3.79508 9.68107 2.93253 9.24593 2.12006C10.5735 2.5746 11.6774 3.49089 12.37 4.68857ZM7.37727 0.359619C3.38742 0.359619 0.162354 3.60633 0.162354 7.57453C0.162354 9.48805 0.922494 11.3232 2.27555 12.6762C2.94552 13.3462 3.74088 13.8777 4.61624 14.2402C5.49159 14.6028 6.42979 14.7894 7.37727 14.7894C9.29078 14.7894 11.1259 14.0293 12.479 12.6762C13.832 11.3232 14.5922 9.48805 14.5922 7.57453C14.5922 6.62706 14.4056 5.68886 14.043 4.8135C13.6804 3.93815 13.1489 3.14278 12.479 2.47282C11.809 1.80285 11.0136 1.2714 10.1383 0.908822C9.26294 0.546238 8.32474 0.359619 7.37727 0.359619Z" fill="#667085"/>
</svg>
