<svg width="87" height="101" viewBox="0 0 87 101" fill="none" xmlns="http://www.w3.org/2000/svg">
<g opacity="0.15">
<path d="M156.266 -2.78767C155.83 -2.12996 155.424 -1.51923 155.023 -0.912782C150.03 6.84297 144.38 14.0477 137.771 20.5201C134.576 23.6506 131.871 27.2744 128.704 30.4412C125.753 33.3923 122.345 35.8907 119.424 38.8675C113.146 45.2523 105.951 50.405 98.5907 55.4296C87.713 62.8565 76.3955 63.006 64.6935 58.0135C57.9393 55.1285 51.706 51.2528 45.6629 47.0973C42.7612 45.0953 40.2428 42.5884 38.2274 39.696C36.1689 36.762 34.2108 33.7575 32.2676 30.7466C29.5001 26.4715 28.3705 21.7245 28.4238 16.653C28.4872 8.32364 30.3428 0.105495 33.8648 -7.44286C37.0722 -14.3487 40.6426 -21.088 44.0934 -27.8786C49.9081 -39.3264 57.4823 -49.6297 65.001 -59.9671C66.1349 -61.5281 67.3072 -63.0549 68.5073 -64.6564L76.7414 -58.4937C76.432 -57.7122 76.082 -56.9474 75.6929 -56.2024C72.2101 -50.2895 68.7593 -44.3446 65.1526 -38.4829C62.5709 -34.2826 59.718 -30.251 57.0958 -26.0742C53.1581 -19.718 49.8415 -12.9975 47.1918 -6.0057C44.877 -0.0137739 42.4939 5.95249 40.2752 11.9807C39.7421 13.3681 39.5269 14.8574 39.6453 16.339C40.0392 20.2036 40.6322 24.0454 41.422 27.8488C42.7267 33.8514 46.0878 38.6048 50.9779 42.3076C55.5015 45.7677 60.5242 48.521 65.8744 50.4733C73.4657 53.2088 81.057 53.1426 88.6441 50.121C94.4759 47.7998 99.2485 44.0693 103.682 39.7814C110.015 33.6528 116.364 27.5378 122.727 21.4362C131.38 13.1648 139.095 3.96555 145.734 -5.99506C146.225 -6.73391 146.793 -7.42146 147.451 -8.30124L156.266 -2.78767ZM78.0482 -55.4786C74.4757 -50.4753 71.5225 -45.109 68.8618 -39.5784C64.5633 -30.7015 60.395 -21.7628 56.0644 -12.9009C53.1112 -6.85986 49.9529 -0.921331 46.9271 5.08126C45.6992 7.51348 44.8151 10.1059 45.1248 12.8627C45.7163 18.2801 46.1284 23.7574 47.9435 28.9507C49.6753 33.9027 52.7481 37.9621 57.3008 40.5929C64.2899 44.6309 71.7211 47.3258 79.9189 47.8703C84.7278 48.1863 88.9815 47.1913 92.7996 44.3854C95.8617 42.1261 99.0093 39.9181 101.745 37.2894C107.293 31.9595 112.661 26.4246 117.957 20.8554C122.33 16.2601 126.652 11.6134 130.741 6.73405C135.08 1.48692 138.932 -4.14462 142.249 -10.0907C142.491 -10.591 142.696 -11.1085 142.862 -11.6389L135.877 -16.8642C135.597 -16.5289 135.435 -16.3709 135.313 -16.1852C128.627 -5.92031 120.47 3.13803 111.937 11.8419C106.564 17.3256 100.581 22.2157 94.8068 27.2979C91.3453 30.3323 87.333 32.4912 83.0728 34.1931C80.5523 35.1818 77.8124 35.4746 75.1399 35.0409C71.8385 34.5497 68.8533 33.213 65.9257 31.6862C63.1432 30.232 61.4669 28.0303 60.6128 25.092C59.165 20.2276 58.9387 15.2351 59.212 10.2083C59.4554 5.82651 60.8712 1.71586 62.5197 -2.30723C65.5712 -9.69356 68.4198 -17.1759 71.8727 -24.3744C75.4986 -31.9038 79.7459 -39.1364 83.722 -46.4949C84.7064 -48.3122 85.6973 -50.1273 86.7714 -52.1068L79.2142 -57.0032C78.7359 -56.401 78.3792 -55.9462 78.044 -55.4743L78.0482 -55.4786ZM84.0744 -42.884C81.7256 -37.1474 79.082 -31.5359 76.1542 -26.072C71.9731 -18.1283 68.755 -9.74269 65.9598 -1.20752C64.6786 2.70025 63.4208 6.60591 62.8912 10.7144C62.3488 14.9169 62.9019 18.9592 64.7511 22.7346C67.3478 28.0389 71.6698 30.8406 77.634 30.847C82.3319 30.847 86.308 28.844 89.9509 26.0808C92.8102 23.9176 95.6973 21.7651 98.3644 19.3756C101.412 16.6359 104.348 13.7467 107.111 10.7187C110.637 6.85575 113.882 2.73873 117.355 -1.17332C122.174 -6.60363 127.088 -11.94 131.944 -17.3041C132.433 -17.8444 132.896 -18.4102 133.522 -19.1426L125.32 -25.2819C125.01 -24.9936 124.722 -24.7652 124.485 -24.494C120.615 -20.0353 116.537 -15.7388 112.928 -11.0751C106.408 -2.64672 99.3573 5.24993 91.3945 12.3117C88.3665 14.998 85.157 17.443 81.5781 19.3521C78.4284 21.0326 75.426 20.6739 73.0706 18.4894C71.3559 16.9028 71.074 14.8913 71.2641 12.7324C71.7894 6.70204 73.722 1.03252 75.9812 -4.50669C80.8062 -16.4232 86.292 -28.0614 92.4131 -39.367C93.6558 -41.6518 94.8645 -43.9538 96.1565 -46.3732C93.9527 -47.6801 91.8514 -48.9357 89.7353 -50.1721C89.2487 -50.4119 88.7497 -50.6258 88.2405 -50.8127C86.814 -48.1349 85.1677 -45.6173 84.0701 -42.8797L84.0744 -42.884Z" fill="#0B102E"/>
</g>
</svg>
