<svg width="120" height="55" viewBox="0 0 120 55" fill="none" xmlns="http://www.w3.org/2000/svg">
<path d="M90.7789 34.8368C91.0268 34.874 91.2766 34.898 91.5272 34.9085C91.669 34.9184 91.8116 34.897 91.9448 34.8458C92.0187 34.7241 92.0187 34.7241 91.9714 34.6121C91.924 34.5 91.7088 34.2026 91.4983 33.9247L91.1607 33.5029L91.0402 33.4297L90.6128 33.02L89.4111 31.7399L79.3961 22.1045C75.9963 18.822 72.4568 15.6878 69.1383 12.2715L63.3655 6.29728C60.9323 3.91378 58.6894 1.3419 56.6571 -1.39502L56.0194 -2.59887C55.7988 -2.95035 55.6311 -3.33292 55.5217 -3.73432C55.3069 -4.34508 55.1787 -4.98378 55.1406 -5.63179C55.0853 -6.15394 55.063 -6.67938 55.0739 -7.20494C55.0466 -7.34697 55.0615 -7.49431 55.1169 -7.62858C55.2069 -7.80769 55.3402 -7.96157 55.5044 -8.07607C55.7421 -8.25569 55.9999 -8.40654 56.2725 -8.52545C57.5399 -9.05881 58.8883 -9.36672 60.2571 -9.4353C62.449 -9.43815 64.6315 -9.18496 66.7608 -8.6808C69.1608 -8.20493 71.5794 -7.65112 74.0267 -7.06318L76.9021 -6.36505L79.0085 -5.86769L87.9893 -3.62423C95.137 -1.81198 102.349 -0.377076 109.468 1.10153C114.036 2.02856 118.646 2.83147 123.226 3.68304C125.51 4.16036 127.801 4.62551 130.099 5.0785L133.503 5.83097C134.639 6.10534 135.735 6.55496 136.852 6.91696C139.572 7.87056 139.076 9.20183 136.322 10.693C134.587 11.6816 132.698 12.365 130.738 12.7134C128.246 13.1622 125.699 13.1857 123.206 12.7829C118.421 12.0235 113.671 11.1522 108.946 10.2128C106.59 9.74674 104.229 9.26119 101.89 8.73915L94.8717 7.03911C90.2209 5.87818 85.5787 4.66695 80.945 3.4054L74.014 1.50824C73.9055 1.44233 73.6536 1.42249 73.649 1.403L73.0707 1.05152L72.1367 0.633774C71.229 0.265855 70.2817 0.00307158 69.3131 -0.149515C69.2168 -0.208096 69.0371 -0.184007 68.9418 -0.108658C68.8466 -0.0333063 69.0032 0.0618892 69.0338 0.147161L69.39 0.64686C69.646 0.985704 69.9335 1.32702 70.209 1.66103L71.2141 2.72173L72.4528 3.94105L78.7719 9.83084C83.1747 13.9062 87.6895 17.933 92.1968 21.9719L100.082 29.0304C101.861 30.5591 103.556 32.184 105.158 33.8981C106.135 35.232 106.95 36.6782 107.588 38.2068C107.698 38.5397 107.79 38.8789 107.862 39.2226C107.99 39.6287 107.964 40.0697 107.786 40.4595C107.232 41.3687 106.424 42.0946 105.463 42.5455C104.456 43.0908 103.386 43.5097 102.279 43.7925C99.5014 44.4137 96.6652 44.7184 93.8246 44.7008C93.0801 44.7313 92.3142 44.7156 91.565 44.7267C90.8159 44.7378 89.9388 44.6879 89.5462 44.6824L86.5057 44.5003C84.4609 44.3902 82.4261 44.2363 80.3646 44.0994C68.1742 42.8449 56.0813 40.8194 44.1577 38.035C34.9372 35.9958 25.8337 34.1442 16.7719 31.5183C14.7922 30.9481 12.8117 30.4606 10.8356 29.776C8.18313 29.0272 5.67793 27.8367 3.42379 26.2539C2.79524 25.7029 2.27642 25.0372 1.89435 24.2915C1.57946 23.5692 1.37229 22.8034 1.27948 22.0187C1.13258 21.3604 1.03152 20.6922 0.977014 20.0191C1.00363 19.0524 1.87165 18.5471 3.551 18.1186C5.735 17.6839 7.98935 17.8308 10.0895 18.5444C25.7078 22.7065 42.0342 27.3323 58.7266 30.5146C64.9205 31.6973 71.155 32.7046 77.3624 33.5123C80.4522 33.8576 83.5715 34.1543 86.7352 34.378L89.107 34.5203L90.2581 34.5536L90.3424 34.6048L90.6036 34.6637L90.7789 34.8368Z" fill="white" fill-opacity="0.3"/>
<path d="M112.937 -12.1493C114.345 -11.5559 115.787 -11.0465 117.256 -10.6236C117.788 -10.467 118.365 -10.4662 118.908 -10.3022C120.843 -9.79296 122.789 -9.05963 124.796 -8.58921C125.684 -8.38459 126.584 -8.23287 127.49 -8.13484C128.68 -8.07811 129.847 -7.7981 130.931 -7.30926C131.257 -7.11155 131.064 -6.49576 130.614 -5.8365C130.231 -5.20174 129.6 -4.75621 128.878 -4.6093C126.553 -4.54237 124.232 -4.76161 121.966 -5.26212C120.539 -5.62943 119.064 -5.5098 117.603 -5.76516C116.141 -6.02051 114.385 -6.3883 112.784 -6.79483C111.812 -7.06896 110.84 -7.34308 109.859 -7.65618C108.395 -8.09661 106.956 -8.68797 105.487 -9.14788C104.341 -9.46122 103.108 -9.57744 101.871 -9.79594C101.598 -9.86209 101.315 -9.88441 101.056 -9.97488C100.109 -10.3172 100.02 -10.8213 100.646 -12.3399C100.838 -12.6562 100.922 -13.0384 101.097 -13.3815C101.419 -14.3375 102.22 -15.0553 103.201 -15.2681C105.156 -15.1691 107.069 -14.6805 108.828 -13.8306C110.151 -13.2929 111.452 -12.7188 112.93 -12.2199L112.937 -12.1493Z" fill="white" fill-opacity="0.3"/>
<path d="M32.0635 52.2064C30.9371 51.8882 29.8262 51.4629 28.6959 51.0425L25.3579 49.8299C24.5389 49.5487 23.6673 49.4354 22.8511 49.1225C19.9799 48.0104 17.129 46.8107 14.3169 45.6013C13.0615 45.0881 11.7488 44.7234 10.463 44.3417C9.65883 44.0361 8.82972 43.7988 8.02828 43.4616C7.23188 43.0943 6.48015 42.6374 5.78742 42.0996C5.31757 41.814 5.6963 41.028 6.42058 40.3521C7.15437 39.5667 8.16183 39.0973 9.22865 39.0436L11.6777 39.466C12.4955 39.6133 13.3126 39.8434 14.1176 40.0661C15.7585 40.5107 17.367 41.0654 18.9323 41.7265C20.9235 42.3773 22.9787 42.8169 25.0644 43.0381L31.9227 44.4578C33.3492 44.8252 34.761 45.2168 36.1301 45.5159C38.2634 45.9962 40.4172 46.6056 42.5743 46.8839C44.2994 47.0037 46.0314 47.0103 47.7593 46.9035C48.152 46.909 48.5455 46.8316 48.9159 46.8736C50.3275 47.0485 50.6486 47.6602 50.4456 49.7857C50.3971 50.2726 50.3681 50.7547 50.2881 51.2392C50.2243 52.5922 49.3693 53.7858 48.11 54.2799C45.0438 54.8201 41.9048 54.7161 38.8917 53.9744C36.6149 53.5401 34.3693 52.8916 32.0471 52.3963L32.0635 52.2064Z" fill="white" fill-opacity="0.3"/>
</svg>
