<svg width="236" height="240" viewBox="0 0 236 240" fill="none" xmlns="http://www.w3.org/2000/svg">
<g opacity="0.4">
<path d="M223.436 312.543L201.633 301.257L201.651 301.137C202.327 296.734 203.025 292.352 203.701 288.112C205.247 278.406 206.721 269.234 207.929 259.924C209.852 245.213 209.76 230.308 207.654 215.622C204.99 197.057 200.683 178.766 194.786 160.962C190.444 147.79 184.403 135.242 176.815 123.633C163.809 103.823 147.904 86.0768 129.632 70.9866C110.045 54.7849 91.3125 43.2217 72.3626 35.6357C54.7354 28.5781 38.0625 25.5522 21.3866 26.3827C3.92854 27.2524 -14.1244 30.2874 -32.2771 35.4092C-42.5146 38.2962 -53.3983 41.9231 -63.6116 48.8538C-80.6107 60.3868 -94.022 72.8016 -104.631 86.82C-106.515 89.3054 -108.578 91.5915 -110.764 94.0074C-111.767 95.1187 -112.806 96.2663 -113.833 97.4441L-113.932 97.5588L-114.059 97.4712C-116.856 95.5234 -119.697 93.6692 -122.445 91.8784C-128.376 88.0038 -133.978 84.3467 -139.115 79.8712L-139.2 79.7957L-139.164 79.69C-138.031 76.196 -135.966 74.3206 -133.767 72.554L-131.248 70.5307C-124.804 65.3606 -118.142 60.0153 -111.764 54.504C-87.2756 33.3405 -60.4256 18.0054 -31.957 8.92761C-8.5648 1.46845 9.34323 -0.736052 26.1037 1.82181C54.7596 6.17349 85.1005 11.9566 112.838 24.6885C130.052 32.5946 142.515 39.9783 153.218 48.6303C162.024 55.7482 171.261 63.5788 182.29 73.2697C198.081 87.1613 209.684 104.052 216.768 123.509C224.119 143.682 229.301 162.846 232.617 182.095C235.265 197.478 236.005 211.388 234.87 224.579C233.145 244.673 231.107 264.496 228.83 283.494C228.06 289.863 226.758 296.178 225.378 302.885C224.75 305.944 224.098 309.106 223.491 312.316L223.436 312.543ZM201.995 301.067L223.174 312.029C223.778 308.892 224.406 305.805 225.022 302.816C226.399 296.127 227.7 289.809 228.467 283.455C230.757 264.46 232.792 244.64 234.507 224.549C235.637 211.376 234.903 197.506 232.258 182.152C228.936 162.925 223.766 143.781 216.424 123.627C209.358 104.224 197.788 87.3666 182.039 73.5264C171.017 63.8385 161.782 56.011 152.979 48.8931C142.301 40.2622 129.871 32.8876 112.672 24.9965C84.9737 12.2828 54.6599 6.5087 26.0282 2.16004C9.3221 -0.376684 -8.53761 1.80972 -31.8754 9.25379L-31.9268 9.0907L-31.8754 9.25379C-60.3018 18.3135 -87.1125 33.6274 -111.565 54.7607C-117.949 60.2781 -124.614 65.6324 -131.058 70.7964L-133.58 72.8197C-135.712 74.535 -137.717 76.353 -138.828 79.687C-133.734 84.1172 -128.171 87.7471 -122.282 91.5915C-119.564 93.3611 -116.774 95.1852 -114.014 97.1058C-113.017 95.9643 -112.012 94.856 -111.042 93.7839C-108.862 91.368 -106.814 89.091 -104.927 86.6146C-94.2969 72.5691 -80.8553 60.1301 -63.8321 48.582C-53.5644 41.6362 -42.6625 37.9882 -32.3949 35.0921C-14.2211 29.9582 3.84398 26.9383 21.3413 26.0535C38.0686 25.223 54.7898 28.255 72.4623 35.3307C91.4454 42.9318 110.211 54.5131 129.822 70.736C148.121 85.8484 164.049 103.62 177.075 123.457C184.685 135.09 190.747 147.665 195.107 160.865C201.007 178.685 205.318 196.993 207.987 215.574C210.095 230.29 210.187 245.225 208.261 259.966C207.053 269.283 205.583 278.454 204.033 288.163C203.369 292.367 202.678 296.703 202.007 301.067H201.995ZM188.889 293.834L181.016 289.329C172.684 284.554 164.817 280.046 156.881 275.531C155.449 274.715 155.25 273.39 155.389 271.647C155.609 268.89 155.739 266.091 155.866 263.385L155.932 261.959C157.05 238.546 154.142 216.41 150.799 193.909C147.495 171.67 140.531 151.685 130.142 134.51C129.146 132.865 128.107 131.207 127.104 129.606C125.625 127.244 124.085 124.804 122.665 122.358C113.497 106.594 99.9011 95.4237 81.1022 88.2031C69.0709 83.5857 55.5146 80.8406 39.654 79.8139C11.7863 78.0019 -13.9976 81.2302 -39.1655 89.6557C-44.9899 91.5882 -50.4386 94.5076 -55.2737 98.2866C-62.2194 103.747 -69.0263 109.188 -77.0834 115.675C-78.2702 116.63 -79.4118 117.696 -80.517 118.725C-81.0244 119.202 -81.5277 119.673 -82.027 120.136L-82.1297 120.226L-102.396 106.033L-102.297 105.894C-101.75 105.121 -101.246 104.384 -100.759 103.674C-99.7357 102.164 -98.7724 100.769 -97.7094 99.4885C-96.0273 97.4591 -94.2123 95.4962 -92.4608 93.5937C-91.9413 93.034 -91.4249 92.4733 -90.9115 91.9116C-77.482 77.2197 -64.5508 66.0672 -51.378 57.8229C-32.7089 46.1389 -12.3367 41.2134 14.6703 41.8174C17.4456 41.8808 20.2783 41.8838 23.0174 41.8869C24.8776 41.8869 26.8013 41.8869 28.6888 41.908C30.5762 41.9291 32.4576 41.908 34.3027 41.908C38.6242 41.8657 43.0967 41.8204 47.3759 42.2795C60.742 43.723 74.0085 47.9055 90.3945 55.8388C99.6988 60.3475 109.326 65.6988 116.689 74.2783L117.486 75.2085C120.125 78.2828 122.849 81.4597 125.588 84.5219C126.174 85.1782 126.758 85.8355 127.34 86.4939C129.711 89.1725 132.172 91.9297 134.769 94.4302C136.928 96.4928 139.22 98.4829 141.434 100.41C144.756 103.309 148.223 106.307 151.297 109.611C160.877 119.869 168.731 131.613 174.55 144.385C180.415 157.296 184.295 171.58 186.086 186.839C187.424 198.248 188.556 207.015 189.752 215.272C193.295 239.715 192.096 264.674 190.453 285.865C190.282 287.467 189.998 289.054 189.601 290.615C189.39 291.551 189.169 292.521 188.952 293.62L188.889 293.834ZM24.8988 78.9683C29.7689 78.9683 34.7014 79.1293 39.6963 79.4514C55.5931 80.4812 69.1826 83.2324 81.2471 87.8649C100.122 95.1127 113.775 106.332 122.982 122.165C124.408 124.62 125.936 127.057 127.415 129.413C128.418 131.016 129.457 132.671 130.457 134.32C140.881 151.534 147.848 171.565 151.158 193.848C154.504 216.365 157.412 238.519 156.292 261.962L156.225 263.388C156.099 266.106 155.969 268.899 155.748 271.662C155.615 273.32 155.787 274.495 157.068 275.223C165.004 279.753 172.874 284.246 181.203 289.018L188.665 293.291C188.868 292.276 189.079 291.343 189.269 290.51C189.661 288.965 189.943 287.395 190.115 285.811C191.755 264.638 192.953 239.703 189.414 215.29C188.206 207.03 187.086 198.261 185.748 186.848C182.209 156.679 170.534 130.76 151.04 109.814C147.978 106.525 144.535 103.529 141.204 100.636C138.988 98.7064 136.693 96.7102 134.527 94.6476C131.912 92.1502 129.454 89.3748 127.077 86.6901C126.494 86.0318 125.915 85.3735 125.329 84.7212C122.587 81.653 119.86 78.476 117.223 75.4017L116.423 74.4716C109.103 65.9404 99.5116 60.6072 90.2404 56.1166C73.8907 48.1984 60.6454 44.037 47.3336 42.5905C43.0756 42.1315 38.6122 42.1738 34.2997 42.2191C32.4546 42.2372 30.546 42.2553 28.6767 42.2341C26.8073 42.213 24.8716 42.213 23.0113 42.21C20.2693 42.21 17.4366 42.21 14.6583 42.1436C-12.2793 41.5396 -32.5942 46.4469 -51.2028 58.0947C-64.3485 66.3239 -77.2555 77.4523 -90.6669 92.123C-91.1803 92.6847 -91.6967 93.2464 -92.2161 93.8081C-93.9647 95.7046 -95.7766 97.6675 -97.4527 99.6878C-98.5066 100.959 -99.4669 102.36 -100.473 103.846C-100.932 104.517 -101.403 105.208 -101.913 105.933L-82.1508 119.767C-81.6767 119.335 -81.2056 118.894 -80.7315 118.454C-79.6232 117.418 -78.4756 116.34 -77.2797 115.385C-69.2196 108.896 -62.4278 103.457 -55.4669 97.9937C-50.6011 94.1908 -45.1176 91.2529 -39.2561 89.3084C-18.5667 82.3898 2.55449 78.9683 24.8988 78.9683Z" fill="#000A41"/>
</g>
</svg>
